<svg width="258" height="258" viewBox="0 0 258 258" fill="none" xmlns="http://www.w3.org/2000/svg">
<path d="M128.429 45.0114C129.582 46.5529 131.506 46.5559 132.664 45.018C134.592 42.7115 133.826 40.0159 133.831 36.936C133.837 33.0869 134.228 29.2389 135.004 25.391C135.778 22.3129 131.161 21.1509 130.002 23.8435C128.842 26.9211 128.067 30.3841 127.676 33.8477C127.285 37.6963 126.124 41.9285 128.429 45.0114Z" fill="#00B37E" stroke="#00B37E" stroke-width="0.00213334"/>
<path d="M128.019 61.1772C128.786 63.4879 129.168 65.4125 129.549 67.7226C129.548 68.8773 129.161 70.0315 129.544 71.1874C129.927 72.3428 129.926 73.1126 130.693 74.2685C131.461 75.8094 134.155 75.8136 134.927 74.2751C136.086 71.5825 136.089 69.658 135.324 66.9624C134.558 64.2668 134.177 61.9567 132.641 59.2599C131.105 56.948 127.253 58.4816 128.019 61.1772Z" fill="#00B37E" stroke="#00B37E" stroke-width="0.00213334"/>
<path d="M130.64 108.526C131.408 109.682 133.333 109.685 134.489 108.532C136.032 106.61 135.649 105.07 135.653 102.76C135.657 100.451 135.275 98.5254 135.278 96.2159C134.898 93.136 130.664 93.1294 130.659 96.2087C130.656 98.1339 130.268 100.057 130.265 101.982C129.492 104.29 128.718 106.213 130.64 108.526Z" fill="#00B37E" stroke="#00B37E" stroke-width="0.00213334"/>
<path d="M130.228 125.847C131.761 130.083 130.985 134.316 132.133 138.552C132.899 140.862 136.363 140.868 137.137 138.559C138.684 133.943 137.152 128.552 134.465 124.313C133.314 122.002 129.462 123.536 130.228 125.847Z" fill="#00B37E" stroke="#00B37E" stroke-width="0.00213334"/>
<path d="M132.846 175.12C133.615 175.891 135.154 175.893 135.925 175.125C138.238 172.819 137.473 169.738 137.478 166.659C137.482 163.964 137.487 160.885 137.106 158.19C136.725 155.88 132.876 155.874 132.487 158.183C132.098 160.877 132.095 163.186 132.09 165.881C131.316 168.959 130.541 172.422 132.846 175.12Z" fill="#00B37E" stroke="#00B37E" stroke-width="0.00213334"/>
<path d="M136.644 208.228C138.953 208.232 140.496 205.925 139.729 203.999C138.964 200.919 138.97 197.069 138.59 193.99C138.208 192.064 134.744 192.059 134.356 193.983C133.966 197.447 134.345 200.911 133.186 203.989C132.798 205.913 134.334 208.225 136.644 208.228Z" fill="#00B37E" stroke="#00B37E" stroke-width="0.00213334"/>
<path d="M100.074 209.711C108.912 219.348 118.52 228.986 130.443 235.163C131.981 235.935 133.906 235.938 135.063 234.4C143.161 224.79 149.337 214.022 157.819 204.797C160.903 201.723 155.907 197.096 153.207 200.171C145.496 208.627 139.707 218.626 131.995 227.082C121.997 220.908 115.082 212.044 106.241 203.947C102.014 200.091 96.6154 205.857 100.074 209.711Z" fill="#00B37E" stroke="#00B37E" stroke-width="0.00213334"/>
</svg>
