<svg viewBox="0 0 46 46" xmlns="http://www.w3.org/2000/svg">
<path d="M37.375 7.1875H8.625C7.83109 7.1875 7.1875 7.83109 7.1875 8.625V37.375C7.1875 38.1689 7.83109 38.8125 8.625 38.8125H37.375C38.1689 38.8125 38.8125 38.1689 38.8125 37.375V8.625C38.8125 7.83109 38.1689 7.1875 37.375 7.1875Z"  stroke-width="4"  />
<path d="M31.625 4.3125V10.0625"  stroke-width="4"  />
<path d="M14.375 4.3125V10.0625"  stroke-width="4"  />
<path d="M7.1875 15.8125H38.8125"  stroke-width="4"  />
<path d="M16.5312 23H21.5625L18.6875 26.5938C19.1607 26.5929 19.6267 26.7089 20.0443 26.9314C20.4619 27.1539 20.8181 27.476 21.0813 27.8691C21.3446 28.2623 21.5067 28.7143 21.5534 29.1852C21.6001 29.656 21.5298 30.1311 21.3488 30.5683C21.1679 31.0055 20.8818 31.3912 20.516 31.6914C20.1503 31.9915 19.7161 32.1967 19.252 32.2888C18.7878 32.3809 18.3082 32.357 17.8555 32.2192C17.4029 32.0815 16.9912 31.8342 16.657 31.4992"  stroke-width="4"  />
<path d="M25.875 25.1562L28.75 23V32.3438"  stroke-width="4"  />
</svg>
